<?xml version="1.0" encoding="UTF-8" standalone="no"?>
<!-- Created with Inkscape (http://www.inkscape.org/) -->

<svg
   xmlns:dc="http://purl.org/dc/elements/1.1/"
   xmlns:cc="http://creativecommons.org/ns#"
   xmlns:rdf="http://www.w3.org/1999/02/22-rdf-syntax-ns#"
   xmlns:svg="http://www.w3.org/2000/svg"
   xmlns="http://www.w3.org/2000/svg"
   xmlns:sodipodi="http://sodipodi.sourceforge.net/DTD/sodipodi-0.dtd"
   xmlns:inkscape="http://www.inkscape.org/namespaces/inkscape"
   id="svg2"
   version="1.1"
   inkscape:version="0.48.5 r10040"
   width="415.625"
   height="675"
   xml:space="preserve"
   sodipodi:docname="church_logo.svg"><metadata
     id="metadata8"><rdf:RDF><cc:Work
         rdf:about=""><dc:format>image/svg+xml</dc:format><dc:type
           rdf:resource="http://purl.org/dc/dcmitype/StillImage" /><dc:title /></cc:Work></rdf:RDF></metadata><defs
     id="defs6"><clipPath
       clipPathUnits="userSpaceOnUse"
       id="clipPath20"><path
         d="M 0,800 800,800 800,0 0,0 0,800 z"
         id="path22"
         inkscape:connector-curvature="0" /></clipPath><clipPath
       clipPathUnits="userSpaceOnUse"
       id="clipPath28"><path
         d="m -49,849 898,0 0,-898 -898,0 0,898 z"
         id="path30"
         inkscape:connector-curvature="0" /></clipPath><radialGradient
       fx="0"
       fy="0"
       cx="0"
       cy="0"
       r="1"
       gradientUnits="userSpaceOnUse"
       gradientTransform="matrix(400,0,0,-400,400,400)"
       spreadMethod="pad"
       id="radialGradient36"><stop
         style="stop-opacity:1;stop-color:#ffffff"
         offset="0"
         id="stop38" /><stop
         style="stop-opacity:1;stop-color:#e4e4e4"
         offset="1"
         id="stop40" /></radialGradient><radialGradient
       fx="0"
       fy="0"
       cx="0"
       cy="0"
       r="1"
       gradientUnits="userSpaceOnUse"
       gradientTransform="matrix(448.99997,0,0,-448.99997,400,400)"
       spreadMethod="pad"
       id="radialGradient46"><stop
         style="stop-opacity:1;stop-color:#ffffff"
         offset="0"
         id="stop48" /><stop
         style="stop-opacity:1;stop-color:#e4e4e4"
         offset="1"
         id="stop50" /></radialGradient><clipPath
       clipPathUnits="userSpaceOnUse"
       id="clipPath80"><path
         d="M 0,800 800,800 800,0 0,0 0,800 z"
         id="path82"
         inkscape:connector-curvature="0" /></clipPath></defs><sodipodi:namedview
     pagecolor="#ffffff"
     bordercolor="#666666"
     borderopacity="1"
     objecttolerance="10"
     gridtolerance="10"
     guidetolerance="10"
     inkscape:pageopacity="0"
     inkscape:pageshadow="2"
     inkscape:window-width="1920"
     inkscape:window-height="1017"
     id="namedview4"
     showgrid="false"
     fit-margin-top="0"
     fit-margin-left="0"
     fit-margin-right="0"
     fit-margin-bottom="0"
     inkscape:zoom="0.472"
     inkscape:cx="-1057.1994"
     inkscape:cy="365.69699"
     inkscape:window-x="-8"
     inkscape:window-y="1072"
     inkscape:window-maximized="1"
     inkscape:current-layer="g10" /><g
     id="g10"
     inkscape:groupmode="layer"
     inkscape:label="05"
     transform="matrix(1.25,0,0,-1.25,-292.1875,880.85937)"><g
       id="g4078"
       style="fill:#ffffff;fill-opacity:1;stroke:none"><path
         d="m 541.0068,261.2998 c -2.714,-4.504 -4.278,-9.781 -4.278,-15.426 0,-1.832 0.174,-3.622 0.488,-5.363 -11.331,-2.144 -20.402,-10.661 -23.344,-21.688 -1.663,0.418 -3.395,0.665 -5.188,0.665 -6.896,0 -13.005,-3.304 -16.879,-8.402 l -34.011,0 -15.21,0 0,135.399 -38.123,0 -8.925,0 -38.122,0 0,-135.399 -15.209,0 -34.012,0 c -3.873,5.098 -9.983,8.402 -16.877,8.402 -1.794,0 -3.527,-0.247 -5.19,-0.665 -2.94,11.027 -12.013,19.544 -23.344,21.688 0.316,1.741 0.489,3.531 0.489,5.363 0,5.645 -1.565,10.922 -4.279,15.426 l 0,130.277 141.007,66.847 141.007,-66.847 0,-130.277 z m -108.155,-45.347 -28.39,0 0,120.798 28.39,0 0,-120.798 z m -37.315,0 -28.389,0 0,120.798 28.389,0 0,-120.798 z m -81.5,335.278 85.963,46.712 85.963,-46.712 0,-95.842 -85.963,40.754 -85.963,-40.754 0,95.842 z m 236.362,-280.226 0,116.119 13.859,-6.571 0,37.719 -67.344,31.926 0,95.083 15.789,-8.58 0,35.69 -103.554,56.27 0,34.782 16.199,0 0,18.298 -16.199,0 0,22.462 -18.298,0 0,-22.462 -16.203,0 0,-18.298 16.203,0 0,-34.782 -103.553,-56.27 0,-35.69 15.788,8.58 0,-95.083 -67.344,-31.926 0,-37.719 13.86,6.571 0,-116.119 c -4.448,2.885 -9.707,4.629 -15.363,4.8 l 0,-81.703 77.872,0 c 0.27,1.352 0.416,2.747 0.416,4.177 0,1.165 -0.119,2.301 -0.299,3.416 l 29.978,0 0,-10.887 -17.608,0 0,-25.615 150.805,0 0,25.615 -17.608,0 0,10.887 29.979,0 c -0.181,-1.115 -0.3,-2.251 -0.3,-3.416 0,-1.43 0.146,-2.825 0.416,-4.177 l 77.871,0 0,81.703 c -5.655,-0.171 -10.915,-1.915 -15.362,-4.8"
         style="fill:#ffffff;fill-opacity:1;fill-rule:nonzero;stroke:none;stroke-opacity:1"
         id="path190"
         inkscape:connector-curvature="0" /><g
         style="fill:#ffffff;fill-opacity:1;stroke:none;stroke-opacity:1"
         transform="translate(416.832,403.6709)"
         id="g192"><path
           inkscape:connector-curvature="0"
           id="path194"
           style="fill:#ffffff;fill-opacity:1;fill-rule:nonzero;stroke:none;stroke-opacity:1"
           d="m 0,0 c 0,-9.282 -7.551,-16.832 -16.832,-16.832 -9.281,0 -16.832,7.55 -16.832,16.832 0,9.28 7.551,16.832 16.832,16.832 C -7.551,16.832 0,9.28 0,0 m -42.181,0 c 0,-13.979 11.371,-25.35 25.349,-25.35 13.978,0 25.35,11.371 25.35,25.35 0,13.978 -11.372,25.349 -25.35,25.349 C -30.81,25.349 -42.181,13.978 -42.181,0" /></g><path
         d="m 383.168,536.7007 c 0,9.281 7.551,16.833 16.832,16.833 9.281,0 16.832,-7.552 16.832,-16.833 0,-9.281 -7.551,-16.832 -16.832,-16.832 -9.281,0 -16.832,7.551 -16.832,16.832 m 42.182,0 c 0,13.978 -11.371,25.349 -25.35,25.349 -13.978,0 -25.349,-11.371 -25.349,-25.349 0,-13.978 11.371,-25.349 25.349,-25.349 13.979,0 25.35,11.371 25.35,25.349"
         style="fill:#ffffff;fill-opacity:1;fill-rule:nonzero;stroke:none;stroke-opacity:1"
         id="path198"
         inkscape:connector-curvature="0" /></g></g></svg>