<?xml version="1.0" encoding="UTF-8" standalone="no"?>
<svg
   xmlns:dc="http://purl.org/dc/elements/1.1/"
   xmlns:cc="http://creativecommons.org/ns#"
   xmlns:rdf="http://www.w3.org/1999/02/22-rdf-syntax-ns#"
   xmlns:svg="http://www.w3.org/2000/svg"
   xmlns="http://www.w3.org/2000/svg"
   xmlns:sodipodi="http://sodipodi.sourceforge.net/DTD/sodipodi-0.dtd"
   xmlns:inkscape="http://www.inkscape.org/namespaces/inkscape"
   version="1.1"
   x="0px"
   y="0px"
   viewBox="0 0 88.514186 55.614"
   enable-background="new 0 0 100 100"
   xml:space="preserve"
   id="svg2"
   inkscape:version="0.48.5 r10040"
   width="100%"
   height="100%"
   sodipodi:docname="cloud.svg"><metadata
     id="metadata10"><rdf:RDF><cc:Work
         rdf:about=""><dc:format>image/svg+xml</dc:format><dc:type
           rdf:resource="http://purl.org/dc/dcmitype/StillImage" /><dc:title /></cc:Work></rdf:RDF></metadata><defs
     id="defs8" /><sodipodi:namedview
     pagecolor="#ffffff"
     bordercolor="#666666"
     borderopacity="1"
     objecttolerance="10"
     gridtolerance="10"
     guidetolerance="10"
     inkscape:pageopacity="0"
     inkscape:pageshadow="2"
     inkscape:window-width="1920"
     inkscape:window-height="1017"
     id="namedview6"
     showgrid="false"
     fit-margin-top="0"
     fit-margin-left="0"
     fit-margin-right="0"
     fit-margin-bottom="0"
     inkscape:zoom="5.3400704"
     inkscape:cx="-2.008446"
     inkscape:cy="17.085055"
     inkscape:window-x="-8"
     inkscape:window-y="1072"
     inkscape:window-maximized="1"
     inkscape:current-layer="svg2" /><path
     d="m 76.785186,26.575 c 0.94,-5.371 -0.068,-10.837 -2.902,-15.559 -3.119,-5.197 -8.075,-8.868 -13.956,-10.336 -1.805,-0.451 -3.657,-0.68 -5.506,-0.68 -8.409,0 -16.053,4.631 -19.982,11.951 -1.879,-1.284 -4.1,-1.975 -6.421,-1.975 -3.09,0 -5.983,1.214 -8.147,3.419 -1.808,1.842 -2.936,4.263 -3.206,6.81 -9.0640002,0.543 -16.4410002,8.08 -16.6600002,17.267 -0.113,4.732 1.624,9.226 4.89,12.65 3.267,3.426 7.6710002,5.374 12.4050002,5.487 l 56.547,0.005 c 8.088,0 14.667,-6.579 14.667,-14.667 0,-7.096 -4.936,-13.006 -11.729,-14.372 z m -2.938,26.04 h -56.127 l -0.351,-0.005 c -3.931,-0.093 -7.5900002,-1.712 -10.3030002,-4.558 -2.713,-2.846 -4.156,-6.577 -4.062,-10.508 0.189,-7.924 6.787,-14.371 14.7090002,-14.371 l 0.357,0.004 c 0.408,0.019 0.809,-0.15 1.099,-0.441 0.29,-0.292 0.448,-0.69 0.436,-1.102 -0.066,-2.276 0.811,-4.513 2.406,-6.138 1.596,-1.625 3.729,-2.521 6.006,-2.521 2.218,0 4.311,0.855 5.894,2.409 0.354,0.347 0.853,0.499 1.34,0.401 0.485,-0.095 0.893,-0.424 1.088,-0.878 3.114,-7.234 10.211,-11.909 18.081,-11.909 1.604,0 3.212,0.199 4.779,0.59 5.103,1.275 9.403,4.46 12.11,8.97 2.707,4.51 3.495,9.804 2.221,14.907 -0.106,0.426 -0.021,0.877 0.234,1.235 0.255,0.357 0.653,0.585 1.091,0.623 6.075,0.528 10.657,5.525 10.657,11.623 0.002,6.435 -5.232,11.669 -11.665,11.669 z"
     id="path4"
     style="fill:#dbfbbf;fill-opacity:1"
     inkscape:connector-curvature="0" /></svg>